<svg xmlns="http://www.w3.org/2000/svg" viewBox="0 0 1440 320">
  <path fill="#ffffff" fill-opacity="1" d="M0,128L30,138.7C60,149,120,171,180,170.7C240,171,300,149,360,144C420,139,480,149,540,133.3C600,117,660,75,720,80C780,85,840,139,900,176C960,213,1020,235,1080,229.3C1140,224,1200,192,1260,176C1320,160,1380,160,1410,160L1440,160L1440,320L1410,320C1380,320,1320,320,1260,320C1200,320,1140,320,1080,320C1020,320,960,320,900,320C840,320,780,320,720,320C660,320,600,320,540,320C480,320,420,320,360,320C300,320,240,320,180,320C120,320,60,320,30,320L0,320Z">
  </path>
</svg>